<svg height="481pt" viewBox="0 -7 481.19411 481" width="481pt" xmlns="http://www.w3.org/2000/svg"><path d="m425.089844 440.097656h-4.691406c-9.367188.023438-18.355469-3.695312-24.964844-10.335937l-5.355469-4.914063 8.9375-14.582031 7.726563 8.167969c3.617187 3.632812 8.53125 5.675781 13.65625 5.664062h4.691406c4.417968 0 8-3.582031 8-8 0-4.417968-3.582032-8-8-8v-16c13.253906 0 24 10.746094 24 24s-10.746094 24-24 24zm0 0" fill="#168de2"/><path d="m217.089844.0976562 18.910156 85.0859378c19.058594 85.777344 15.296875 175.046875-10.910156 258.914062l152-16c33.03125-117.972656-17.28125-243.421875-122.675782-305.878906zm0 0" fill="#ffcb5a"/><path d="m417.808594 376.097656-32.71875 72-11.042969-6c-30.5625-16.691406-66.398437-20.90625-100-11.761718l-19.839844 5.359374c-23.339843 6.371094-47.945312 6.507813-71.359375.402344l-1.121094-.320312c-29.339843-7.695313-60.382812-5.675782-88.480468 5.757812l-1.359375.480469c-22.648438 9.285156-47.375 12.324219-71.597657 8.800781l-3.519531-.480468.320313-2.238282-8-40 416-48zm0 0" fill="#0d70b1"/><path d="m193.089844 56.097656 8.6875 30.398438c25.289062 88.503906 16.476562 183.273437-24.6875 265.601562l-88 8 17.109375-29.945312c31.066406-54.367188 53.390625-113.277344 66.160156-174.574219zm0 0" fill="#f79644"/><path d="m423.558594 466.921875c-13.625-.019531-27.03125-3.464844-38.972656-10.023437l-14.347657-7.824219c-28.742187-15.742188-62.476562-19.703125-94.085937-11.050781l-19.832032 5.394531c-24.714843 6.710937-50.753906 6.832031-75.527343.351562l-1.066407-.273437c-27.660156-7.324219-56.953124-5.429688-83.4375 5.402344l-1.3125.527343c-23.992187 9.753907-50.140624 12.964844-75.777343 9.304688l-19.199219-2.746094 2.273438-15.839844 19.199218 2.746094c22.832032 3.253906 46.121094.394531 67.488282-8.289063l1.304687-.527343c29.691406-12.15625 62.542969-14.285157 93.558594-6.058594l1.0625.273437c22.070312 5.773438 45.265625 5.667969 67.28125-.3125l19.824219-5.390624c35.582031-9.722657 73.550781-5.25 105.894531 12.480468l14.34375 7.824219c14.867187 8.148437 32.324219 10.191406 48.671875 5.695313 15.933594-4.257813 26.230468-19.683594 24.046875-36.03125-2.183594-16.347657-16.167969-28.53125-32.660157-28.457032h-18.113281l6.914063-16h11.199218c24.496094-.054687 45.234376 18.0625 48.476563 42.34375 3.238281 24.28125-12.023437 47.203125-35.675781 53.574219-7.015625 1.917969-14.257813 2.894531-21.53125 2.90625zm0 0" fill="#168de2"/></svg>